# xmcd
#
# Track frame offsets:
# 150
# 13491
# 28342
# 46677
# 67164
# 81018
# 98438
# 114975
# 128545
# 143559
# 161152
# 179148
# 197005
# 209113
# 229369
# 242220
# 256381
#
# Disc length: 3627 seconds
#
#
# Revision: 1
# Processed by: cddbd v1.5.1PL2 Copyright (c) Steve Scherf et al.
# Submitted via: FreeRIP 2.90 
#
DISCID=f80e2911
DTITLE=Garotos de Ouro - Bailão dos Garotos
DYEAR=2004
DGENRE=Gauchesca
TTITLE0=Lambendo Espoleta
TTITLE1=Chevetão
TTITLE2=Carona na 101
TTITLE3=Marca de Raiz
TTITLE4=Pequena paisagem de Amor
TTITLE5=Carne Boa
TTITLE6=Se preparando pra semana Farroupilha
TTITLE7=Bailanta do Fundão
TTITLE8=Poupança da Gordinha
TTITLE9=Causos de Galpão
TTITLE10=Vanerão do Nego Nereu
TTITLE11=Morenaça
TTITLE12=Xixo
TTITLE13=Barbaridade Tchê
TTITLE14=Ânsia de Baile
TTITLE15=Barraca Armada
TTITLE16=O Bugio e as Macacas
EXTD=
EXTT0=
EXTT1=
EXTT2=
EXTT3=
EXTT4=
EXTT5=
EXTT6=
EXTT7=
EXTT8=
EXTT9=
EXTT10=
EXTT11=
EXTT12=
EXTT13=
EXTT14=
EXTT15=
EXTT16=
PLAYORDER=
